<?xml version="1.0" encoding="UTF-8" standalone="no"?>
<!-- Created with Inkscape (http://www.inkscape.org/) by Marsupilami -->
<svg
   xmlns:svg="http://www.w3.org/2000/svg"
   xmlns="http://www.w3.org/2000/svg"
   version="1.0"
   width="1024"
   height="229"
   viewBox="0 0 65.899124 14.754359"
   id="svg3428">
  <defs
     id="defs3430" />
  <g
     transform="translate(8.9495639,-16.622821)"
     id="layer1">
    <path
       d="M 0.25,0 C -0.195,0 0.56250002,0.25874998 0.5625,1.0625 C 0.5625,1.0625 0.56000002,11.46375 0.5625,12.59375 C 0.5625,12.6025 0.59624999,13.5575 0.40625,13.84375 C 0.04875,14.3775 -0.21875001,14.53125 0.28125,14.53125 C 0.28125,14.53125 9.3262499,14.53875 9.65625,14.53125 C 9.9675,14.525 10.08125,14.59125 10.1875,14.25 C 10.33,13.79625 10.65625,11.4375 10.65625,11.4375 C 10.65625,11.4375 10.8725,10.82625 10.21875,11.625 C 8.08875,14.2275 5.5924999,14.11125 4.6875,14.0625 C 2.56625,13.94625 2.5625,13.80125 2.5625,12.5625 C 2.5625,12.5625 2.525,1.64625 2.53125,1.03125 C 2.54,0.185 3.3337499,1.1080557e-10 2.78125,0 C 2.78125,0 0.66000001,1.1080559e-10 0.25,0 z M 12.375,0 C 11.68,1.1080559e-10 12.78,0.26625 13.375,1.90625 C 13.52875,2.27125 18.375,14.40625 18.375,14.40625 C 18.448751,14.53 18.53125,14.53125 18.53125,14.53125 C 18.53125,14.53125 19.5175,14.53125 19.625,14.53125 C 19.7325,14.53125 19.8075,14.42 19.84375,14.375 C 19.84375,14.375 23.93875,3.64125 24.1875,3 C 24.4375,2.3587501 25.28125,0.82 25.8125,0.3125 C 26.222501,-0.08000001 25.59375,0 25.59375,0 C 25.59375,1.1080559e-10 23.16875,9.8416183e-26 22.8125,0 C 22.633751,1.1080559e-10 22.2975,-0.1125 22.78125,0.59375 C 23.655001,1.86875 23.0625,3.28125 23.0625,3.28125 L 19.71875,12.5 C 19.718749,12.5 15.705,2.04375 15.5625,1.6875 C 15.42,1.33125 15.46125,0.74 15.6875,0.46875 C 16.1425,-0.074999985 15.98125,0 15.625,0 C 15.375,1.1080559e-10 12.7675,0 12.375,0 z M 31.90625,0 C 30.962499,1.1080559e-10 32.24875,0.1775 32.1875,2.15625 C 32.204999,3.68 31.21,11.39875 30.875,12.46875 C 30.572501,13.4325 30.17,14.12625 30.03125,14.28125 C 29.87,14.45875 29.8625,14.53125 30.09375,14.53125 C 30.201251,14.53125 32.01,14.53125 32.1875,14.53125 C 32.598752,14.53125 32.15625,14.125 32.15625,14.125 C 32.15625,14.125 31.8125,13.59125 31.9375,12.46875 C 31.985,12.04125 33.125,2.15625 33.125,2.15625 C 33.125001,2.15625 37.60375,14.0825 37.75,14.4375 C 37.91875,14.8475 38.125,14.88375 38.3125,14.4375 C 38.375002,14.29125 43.125,1.875 43.125,1.875 C 43.125002,1.875 44.21,11.6225 44.28125,12.40625 C 44.352501,13.19125 44.4025,13.75125 44.34375,13.96875 C 44.21875,14.4325 43.8525,14.53125 44.21875,14.53125 C 44.718751,14.53125 46.78875,14.53125 46.96875,14.53125 C 47.359999,14.53125 47.285,14.4675 47.125,14.21875 C 47.00125,14.02625 46.6425,13.6575 46.25,12.125 C 45.926249,10.8575 45.26,1.975 45.21875,1.40625 C 45.12,0.059999962 46.00875,0 45.5625,0 C 45.42,1.1080559e-10 43,0 43,0 C 43.000001,1.1080559e-10 42.6875,0.04625 42.5625,0.5 C 42.502502,0.71875 38.6875,11.46875 38.6875,11.46875 L 34.53125,0 C 34.531249,1.1080559e-10 32.52125,0 31.90625,0 z M 54.40625,0 C 53.997499,1.1080559e-10 53.895,0.03375 54.1875,0.25 C 54.1875,0.25000001 54.495,0.4425 54.46875,1.71875 C 54.46875,1.7187501 54.47875,12.34375 54.46875,12.84375 C 54.45,13.70875 54.385,14.10875 54.1875,14.34375 C 53.999998,14.56625 54.28125,14.53125 54.28125,14.53125 C 54.281251,14.53125 56.47375,14.53125 56.6875,14.53125 C 56.901251,14.53125 56.78125,14.40625 56.78125,14.40625 C 56.781249,14.40625 56.52625,14.3325 56.5,12.84375 L 56.5,7.34375 L 63.28125,7.34375 C 63.28125,7.3437502 63.31625,12.5875 63.3125,12.875 C 63.303749,13.76625 63.29875,14.12125 63.09375,14.3125 C 62.958752,14.4375 62.6625,14.53125 63.25,14.53125 C 63.571249,14.53125 65.38,14.53125 65.59375,14.53125 C 65.906248,14.53125 65.99,14.53875 65.75,14.34375 C 65.61125,14.23 65.40625,14.025 65.40625,12.875 C 65.406247,12.51125 65.40625,1.635 65.40625,1.375 C 65.406247,0.43999996 65.71875,0.21875 65.71875,0.21875 C 65.882503,0.053750003 65.87375,0 65.5,0 C 65.340002,1.1080559e-10 63.2975,0 63.15625,0 C 62.621249,1.1080559e-10 62.875,0.21875 62.875,0.21875 C 62.875,0.21874999 63.26375,0.64875 63.28125,1.28125 L 63.28125,6.71875 L 56.5,6.71875 C 56.499999,6.7187502 56.49625,1.94125 56.5,1.65625 C 56.507499,0.71999996 56.765,0.4375 56.875,0.28125 C 57.106249,-0.048750005 57.0125,0 56.65625,0 C 56.54875,1.1080559e-10 55.0125,0 54.40625,0 z "
       transform="translate(-8.9495639,16.622821)"
       style="fill:#000000;fill-opacity:1;fill-rule:nonzero;stroke:none"
       id="path16357" />
  </g>
</svg>
